<?xml version="1.0" encoding="utf-8"?>
<svg xmlns="http://www.w3.org/2000/svg" xmlns:xlink="http://www.w3.org/1999/xlink" style="margin: auto; background: none; display: block; shape-rendering: auto; animation-play-state: running; animation-delay: 0s;" width="512px" height="512px" viewBox="0 0 100 100" preserveAspectRatio="xMidYMid">
<defs style="animation-play-state: running; animation-delay: 0s;">
  <clipPath id="progress-6iz8xjh0wki-cp" x="0" y="0" width="100" height="100" style="animation-play-state: running; animation-delay: 0s;">
    <rect x="0" y="0" width="0" height="100" style="animation-play-state: running; animation-delay: 0s;">
      <animate attributeName="width" repeatCount="indefinite" dur="6.25s" values="0;100;100" keyTimes="0;0.5;1" style="animation-play-state: running; animation-delay: 0s;"></animate>
      <animate attributeName="x" repeatCount="indefinite" dur="6.25s" values="0;0;100" keyTimes="0;0.5;1" style="animation-play-state: running; animation-delay: 0s;"></animate>
    </rect>
  </clipPath>
</defs>
<path fill="none" stroke="#55ad15" stroke-width="2.93" d="M14.000000000000004 38.965L86 38.965A11.035 11.035 0 0 1 97.035 50L97.035 50A11.035 11.035 0 0 1 86 61.035L14.000000000000004 61.035A11.035 11.035 0 0 1 2.9650000000000034 50L2.9650000000000034 50A11.035 11.035 0 0 1 14.000000000000004 38.965 Z" style="animation-play-state: running; animation-delay: 0s;"></path>
<path fill="#d8f05b" clip-path="url(#progress-6iz8xjh0wki-cp)" d="M14.000000000000004 43.53L86 43.53A6.47 6.47 0 0 1 92.47 50L92.47 50A6.47 6.47 0 0 1 86 56.47L14.000000000000004 56.47A6.47 6.47 0 0 1 7.530000000000004 50L7.530000000000004 50A6.47 6.47 0 0 1 14.000000000000004 43.53 Z" style="animation-play-state: running; animation-delay: 0s;"></path>
<!-- [ldio] generated by https://loading.io/ --></svg>